<?xml version="1.0" encoding="UTF-8" standalone="no"?><!DOCTYPE svg PUBLIC "-//W3C//DTD SVG 1.1//EN" "http://www.w3.org/Graphics/SVG/1.1/DTD/svg11.dtd"><svg width="100%" height="100%" viewBox="0 0 434 434" version="1.1" xmlns="http://www.w3.org/2000/svg" xmlns:xlink="http://www.w3.org/1999/xlink" xml:space="preserve" xmlns:serif="http://www.serif.com/" style="fill-rule:evenodd;clip-rule:evenodd;stroke-linejoin:round;stroke-miterlimit:2;"><g><path d="M434,325.5c0,59.883 -48.617,108.5 -108.5,108.5l-217,0c-59.883,0 -108.5,-48.617 -108.5,-108.5l0,-188.5l434,0l0,188.5Z" style="fill:#35495e;"/><path d="M0,108.5c0,-59.883 48.617,-108.5 108.5,-108.5l217,0c59.883,0 108.5,48.617 108.5,108.5l-434,0Z" style="fill:#41b883;"/><path d="M199.842,370.765l0,-141.682l-50.601,0l0,-28.848l135.518,0l0,28.848l-50.485,0l0,141.682l-34.432,0Z" style="fill:#fff;fill-rule:nonzero;"/></g></svg>